<svg width="400" height="400" viewBox="0 0 400 400" fill="none" xmlns="http://www.w3.org/2000/svg">
<g clip-path="url(#clip0_53_6)">
<rect width="400" height="400" fill="white"/>
<rect width="400" height="400" fill="url(#paint0_linear_53_6)"/>
<path d="M204.734 325.8C127.594 325.8 84.2737 295.4 84.2737 236.12V233.84H141.274V240.68C141.274 264.24 153.054 273.74 204.734 273.74C250.334 273.74 260.974 266.9 260.974 249.8C260.974 234.22 252.234 228.52 226.014 223.96L154.574 213.7C108.974 206.48 81.9937 183.68 81.9937 142.26C81.9937 103.88 113.154 63.6 198.654 63.6C276.934 63.6 313.414 99.7 313.414 153.28V155.56H256.034V150.24C256.034 125.92 243.494 115.66 192.954 115.66C151.914 115.66 139.374 123.64 139.374 139.98C139.374 154.8 147.734 160.12 169.014 163.92L240.454 175.32C297.454 184.44 317.974 212.18 317.974 247.14C317.974 288.56 285.674 325.8 204.734 325.8Z" fill="white"/>
</g>
<defs>
<linearGradient id="paint0_linear_53_6" x1="0" y1="0" x2="482.819" y2="203.659" gradientUnits="userSpaceOnUse">
<stop stop-color="#094D4D"/>
<stop offset="1" stop-color="#01001B"/>
</linearGradient>
<clipPath id="clip0_53_6">
<rect width="400" height="400" fill="white"/>
</clipPath>
</defs>
</svg>
