<svg width="512" height="512" viewBox="0 0 512 512" fill="none" xmlns="http://www.w3.org/2000/svg">
<rect width="512" height="512" rx="80" fill="white"/>
<path d="M156.9 287.9H222.6C223.5 303.65 235.2 313.1 256.35 313.1C277.95 313.1 287.85 305.45 287.85 293.75C287.85 287 284.25 279.8 267.6 276.2L226.2 267.2C184.8 258.2 164.55 240.2 164.55 200.6C164.55 153.8 204.6 126.8 258.6 126.8C310.8 126.8 347.25 157.4 347.25 202.85H281.55C281.55 187.55 272.1 177.2 255.45 177.2C239.7 177.2 229.8 185.3 229.8 197.45C229.8 207.8 238.35 213.65 254.1 217.25L295.95 226.25C332.85 234.35 353.1 251.45 353.1 287.45C353.1 335.6 312.15 364.85 253.65 364.85C194.25 364.85 156.9 333.35 156.9 287.9Z" fill="#5856D7"/>
</svg>
