<svg width="76" height="30" viewBox="0 0 76 30" fill="none" xmlns="http://www.w3.org/2000/svg">
<path d="M0.616 17.576H4.704C4.76 18.556 5.488 19.144 6.804 19.144C8.148 19.144 8.764 18.668 8.764 17.94C8.764 17.52 8.54 17.072 7.504 16.848L4.928 16.288C2.352 15.728 1.092 14.608 1.092 12.144C1.092 9.232 3.584 7.552 6.944 7.552C10.192 7.552 12.46 9.456 12.46 12.284H8.372C8.372 11.332 7.784 10.688 6.748 10.688C5.768 10.688 5.152 11.192 5.152 11.948C5.152 12.592 5.684 12.956 6.664 13.18L9.268 13.74C11.564 14.244 12.824 15.308 12.824 17.548C12.824 20.544 10.276 22.364 6.636 22.364C2.94 22.364 0.616 20.404 0.616 17.576ZM19.8931 22.364C15.6651 22.364 12.6411 19.284 12.6411 14.972C12.6411 10.604 15.5811 7.552 19.8091 7.552C24.2051 7.552 26.9491 10.436 26.9491 15V16.092L16.7851 16.148C17.0371 17.996 18.0731 18.864 19.9771 18.864C21.6011 18.864 22.7491 18.276 23.0571 17.268H27.0051C26.5011 20.376 23.7291 22.364 19.8931 22.364ZM19.8371 11.052C18.1291 11.052 17.1771 11.808 16.8411 13.488H22.6651C22.6651 12.004 21.5731 11.052 19.8371 11.052ZM32.1346 22H27.8226V0.888H32.1346V22ZM38.0015 22H33.6895V0.888H38.0015V22ZM41.6843 5.816C40.3123 5.816 39.2203 4.724 39.2203 3.352C39.2203 1.98 40.3123 0.915999 41.6843 0.915999C43.0283 0.915999 44.1203 1.98 44.1203 3.352C44.1203 4.724 43.0283 5.816 41.6843 5.816ZM39.5563 22V8H43.8683V22H39.5563ZM49.7352 22H45.4232V8H49.4832L49.7632 9.456C50.6312 8.252 52.2272 7.552 54.0472 7.552C57.3792 7.552 59.3112 9.68 59.3112 13.348V22H54.9992V14.384C54.9992 12.62 54.0192 11.472 52.5352 11.472C50.8272 11.472 49.7352 12.592 49.7352 14.328V22ZM60.0237 14.748C60.0237 10.492 62.7957 7.524 66.7437 7.524C68.6477 7.524 70.1597 8.252 70.9157 9.4L71.1397 8H75.1997V21.104C75.1997 26.116 72.3157 29.14 67.5277 29.14C63.2437 29.14 60.3597 26.704 59.9677 22.728H64.3357C64.4197 24.296 65.5957 25.22 67.4997 25.22C69.5717 25.22 70.8877 23.988 70.8877 22V20.18C70.0477 21.188 68.4797 21.832 66.6597 21.832C62.7397 21.832 60.0237 18.948 60.0237 14.748ZM64.3637 14.636C64.3637 16.652 65.7077 18.08 67.6117 18.08C69.5717 18.08 70.8877 16.708 70.8877 14.636C70.8877 12.592 69.5717 11.276 67.5837 11.276C65.6797 11.276 64.3637 12.648 64.3637 14.636Z" fill="#5856D7"/>
</svg>
